<?xml version="1.0" encoding="utf-8"?>
<!-- Generator: Adobe Illustrator 22.1.0, SVG Export Plug-In . SVG Version: 6.00 Build 0)  -->
<svg version="1.1" id="Layer_1" xmlns="http://www.w3.org/2000/svg" xmlns:xlink="http://www.w3.org/1999/xlink" x="0px" y="0px"
	 viewBox="0 0 512 512" style="enable-background:new 0 0 512 512;" xml:space="preserve">
<path d="M498.8,110.3c-2.1-1.5-4.7-1.9-7.2-1.1c-76.4,24.8-155.9,37.4-236.2,37.4S95.6,134,19.2,109.2c-2.4-0.8-5.1-0.4-7.2,1.1
	c-2.1,1.5-3.3,3.9-3.3,6.5V394c0,2.6,1.2,5,3.3,6.5c2.1,1.5,4.7,1.9,7.2,1.1c76.4-24.8,155.9-37.4,236.2-37.4s159.8,12.6,236.2,37.4
	c0.8,0.3,1.6,0.4,2.5,0.4c1.7,0,3.3-0.5,4.7-1.5c2.1-1.5,3.3-3.9,3.3-6.5V116.8C502.1,114.2,500.9,111.8,498.8,110.3z M363.2,185.8
	c17.1,0,31.1,13.9,31.1,31.1S380.3,248,363.2,248c-17.1,0-31.1-13.9-31.1-31.1S346,185.8,363.2,185.8z M471.3,348.4
	c-1,3.5-4.2,5.8-7.7,5.8c-0.7,0-1.4-0.1-2.2-0.3c-32.3-9-65.5-16-98.7-20.7c-0.1,0-0.1,0-0.2,0c-0.1,0-0.3-0.1-0.4-0.1
	c-0.1,0-0.2-0.1-0.4-0.1c-0.1,0-0.3-0.1-0.4-0.1c-0.1,0-0.2-0.1-0.4-0.1c-0.1,0-0.2-0.1-0.3-0.1c-0.1-0.1-0.3-0.1-0.4-0.2
	c-0.1-0.1-0.2-0.1-0.3-0.2c-0.1-0.1-0.3-0.1-0.4-0.2c-0.1-0.1-0.2-0.1-0.3-0.2c-0.1-0.1-0.3-0.2-0.4-0.3c-0.1-0.1-0.2-0.1-0.2-0.2
	c-0.1-0.1-0.2-0.2-0.4-0.3c0,0-0.1-0.1-0.1-0.1l-95.1-95.1l-46.4,46.4l21.3,21.3c3.1,3.1,3.1,8.2,0,11.3c-3.1,3.1-8.2,3.1-11.3,0
	l-40.5-40.5l-61,61c0,0,0,0,0,0c-0.1,0.1-0.2,0.2-0.4,0.3c-0.1,0.1-0.1,0.1-0.2,0.2c-0.1,0.1-0.2,0.2-0.4,0.3
	c-0.1,0.1-0.2,0.1-0.3,0.2c-0.1,0.1-0.2,0.1-0.3,0.2c-0.1,0.1-0.3,0.2-0.4,0.2c-0.1,0-0.1,0.1-0.2,0.1c-0.2,0.1-0.4,0.2-0.6,0.3
	c0,0-0.1,0-0.1,0c-0.2,0.1-0.4,0.2-0.6,0.2c0,0-0.1,0-0.1,0c-0.2,0.1-0.4,0.1-0.6,0.1c0,0,0,0,0,0c-23.9,4.3-47.9,9.8-71.2,16.3
	c-0.7,0.2-1.4,0.3-2.2,0.3c-3.5,0-6.7-2.3-7.7-5.8c-1.2-4.3,1.3-8.7,5.5-9.9c23.1-6.4,46.7-11.9,70.2-16.2l64.9-64.9
	c1.5-1.5,3.5-2.3,5.7-2.3c2.1,0,4.2,0.8,5.7,2.3l13.6,13.6l52.1-52.1c3.1-3.1,8.2-3.1,11.3,0l98.9,98.9c33,4.8,66,11.8,98.1,20.8
	C470,339.8,472.5,344.2,471.3,348.4z"/>
</svg>
