<?xml version="1.0" encoding="utf-8"?>
<!-- Generator: Adobe Illustrator 22.1.0, SVG Export Plug-In . SVG Version: 6.00 Build 0)  -->
<svg version="1.1" id="Layer_1" xmlns="http://www.w3.org/2000/svg" xmlns:xlink="http://www.w3.org/1999/xlink" x="0px" y="0px"
	 viewBox="0 0 512 512" style="enable-background:new 0 0 512 512;" xml:space="preserve">
<path d="M357.1,229.8c-5.1,3.7-12.3,5.5-21.7,5.5h-32.8v-46.2h32.8c9.3,0,16.5,1.7,21.7,5.1c5.1,3.4,7.7,9.3,7.7,17.6
	C364.8,220.1,362.2,226.1,357.1,229.8z M503.6,144.2v149.9l-0.6,8.6c-4.5,37.8-36.3,63.7-74.8,66.6l-89.4,6.7
	c-1.1,0.1-2.2,0.1-3.4,0.1c-17.6,0-36.8-9.9-44.8-23.5l-15.1-20.1c-4.6-7.8-11.7-12.3-19.6-12.3c-7.9,0-15,4.5-19.6,12.3l-15.1,20.1
	c-8.5,14.5-29.7,24.8-48.2,23.4l-89.4-6.7c-38.5-2.9-70.3-28.8-74.8-66.6l-0.6-8.6V144.2c0-5,4.1-9.1,9.1-9.1h72.5h404.6
	C499.5,135.1,503.6,139.2,503.6,144.2z M241.6,175.9c0-1.2-0.4-2.2-1.3-3c-0.8-0.8-1.8-1.3-3-1.3h-7.2c-2.6,0-4.4,0.6-5.4,1.7
	c-1,1.1-1.7,2.2-2.1,3.2L185,288.2l-37.5-111.7c-0.4-1-1.1-2.1-2.1-3.2c-1-1.1-2.9-1.7-5.4-1.7h-7.2c-1.2,0-2.2,0.4-3,1.3
	c-0.8,0.8-1.3,1.8-1.3,3c0,0.6,0.1,1.3,0.4,1.9l42.2,122c0.8,2.3,2,4.2,3.7,5.6c1.7,1.4,3.8,2.1,6.4,2.1h7.8c2.6,0,4.8-0.7,6.5-2.1
	c1.7-1.4,3-3.3,3.8-5.6l42-122C241.5,177.2,241.6,176.5,241.6,175.9z M385.2,303.3c0-0.6-0.2-1.4-0.6-2.1l-29.3-51.1
	c8.2-2.6,14.9-7,20.1-13.2c5.2-6.2,7.9-14.6,7.9-25.1c0-7.1-1.3-13.2-3.8-18.3c-2.5-5.1-5.9-9.2-10.2-12.4
	c-4.3-3.2-9.2-5.6-14.9-7.2c-5.6-1.6-11.6-2.3-18-2.3h-47c-1.4,0-2.7,0.5-3.7,1.6c-1,1-1.6,2.3-1.6,3.7v125.5c0,1.4,0.5,2.7,1.6,3.7
	c1,1,2.3,1.6,3.7,1.6h8c1.4,0,2.7-0.5,3.7-1.6c1-1,1.6-2.3,1.6-3.7v-49.5H336l28.2,49.5c0.5,0.9,1.4,2,2.6,3.3
	c1.2,1.3,3.1,1.9,5.7,1.9h8.4c1.2,0,2.2-0.4,3-1.3C384.7,305.5,385.2,304.5,385.2,303.3z"/>
</svg>
